#!OML:ASF F:\VICON\USERDATA\INSTALL\SteveWalk\SteveWalk.ASF
:FULLY-SPECIFIED
:DEGREES
31
root -1.17429 15.8738 -38.0586 17.4012 -2.49019 3.04738
lowerback -18.6735 0.997485 -6.09236
upperback -4.3048 2.59032 -1.69395
thorax 5.60585 1.20099 2.23733
lowerneck -4.5691 -1.45991 1.41299
upperneck 7.2342 -2.01124 -0.669891
head 3.09111 -0.983925 -0.544233
rclavicle 2.67831e-014 -6.36111e-015
rhumerus -24.1893 4.12653 -85.9599
rradius 54.8643
rwrist -13.966
rhand -15.8628 -36.5323
rfingers 7.12502
rthumb 10.3325 -66.2585
lclavicle 2.67831e-014 -6.36111e-015
lhumerus -74.0684 33.2961 32.7199
lradius 9.06607
lwrist -55.9222
lhand -8.5282 -14.9502
lfingers 7.12502
lthumb 17.4006 14.291
rfemur -3.03556 -3.28133 14.0294
rtibia 42.1942
rfoot 3.01359 13.7009
rtoes -23.0928
lfemur -50.7037 1.87721 -25.9235
ltibia 32.4587
lfoot -3.71283 -3.49201
ltoes -15.6275
32
root -1.15975 15.8738 -37.8267 17.1765 -2.09316 3.54667
lowerback -17.3167 0.849398 -6.77966
upperback -4.98535 2.3848 -1.9014
thorax 4.14631 1.15894 2.30272
lowerneck -4.2675 -1.59589 1.31904
upperneck 7.71112 -2.21008 -0.330098
head 3.19943 -1.07015 -0.426449
rclavicle -7.74639e-015 -2.78299e-015
rhumerus -26.6819 3.15674 -86.1708
rradius 55.4278
rwrist -14.1674
rhand -15.6191 -37.2711
rfingers 7.12502
rthumb 10.5676 -66.9855
lclavicle -7.74639e-015 -2.78299e-015
lhumerus -75.109 32.6663 31.0947
lradius 9.37194
lwrist -56.553
lhand -7.90115 -14.0199
lfingers 7.12502
lthumb 18.0039 15.1668
rfemur -4.13533 -3.45906 13.5346
rtibia 45.3152
rfoot 5.87393 13.6367
rtoes -21.6112
lfemur -50.3944 1.45069 -26.5038
ltibia 33.9884
lfoot -4.75785 -4.06323
ltoes -13.723
33
root -1.14748 15.8831 -37.6044 16.8529 -1.81345 3.93926
lowerback -17.3946 0.616952 -7.41005
upperback -4.60824 2.22144 -1.95608
thorax 4.58006 1.0523 2.57459
lowerneck -4.39368 -1.61426 1.15121
upperneck 7.43533 -2.24688 -0.0262515
head 3.13386 -1.08328 -0.299496
rclavicle 2.96577e-014 -1.23246e-014
rhumerus -27.5607 2.7474 -86.2643
rradius 55.5572
rwrist -14.4157
rhand -15.6518 -37.2667
rfingers 7.12502
rthumb 10.5361 -66.9826
lclavicle 2.96577e-014 -1.23246e-014
lhumerus -75.4382 33.6685 29.8896
lradius 9.53751
lwrist -57.0072
lhand -7.61827 -14.4769
lfingers 7.12502
lthumb 18.2761 14.6845
rfemur -5.31159 -3.47327 13.159
rtibia 48.4039
rfoot 9.08696 13.7565
rtoes -19.4557
lfemur -49.7985 1.1069 -26.9125
ltibia 35.1681
lfoot -5.4971 -4.13632
ltoes -11.7947
34
root -1.13464 15.8976 -37.3852 16.5363 -1.5637 4.17948
lowerback -16.9852 0.470979 -7.74111
upperback -4.55644 2.05726 -2.07443
thorax 4.42333 0.974624 2.59114
lowerneck -4.27384 -1.62614 1.06198
upperneck 7.26515 -2.28118 0.331722
head 3.05808 -1.09088 -0.16704
rclavicle 3.55328e-015 7.95139e-016
rhumerus -28.6798 2.47747 -86.5624
rradius 55.3089
rwrist -14.9158
rhand -15.7737 -36.3248
rfingers 7.12502
rthumb 10.4184 -66.0467
lclavicle 3.55328e-015 7.95139e-016
lhumerus -76.0717 34.1793 28.3926
lradius 9.87705
lwrist -57.2843
lhand -7.15834 -15.1506
lfingers 7.12502
lthumb 18.7185 13.9687
rfemur -6.5617 -3.53791 12.9502
rtibia 51.4233
rfoot 11.7491 13.9947
rtoes -19.1916
lfemur -49.0229 0.968585 -27.2687
ltibia 35.9706
lfoot -6.23225 -4.2065
ltoes -10.8013
35
root -1.11855 15.9211 -37.1643 16.2451 -1.31538 4.44722
lowerback -16.5516 0.349857 -8.00591
upperback -4.46282 1.91452 -2.24609
thorax 4.30141 0.905559 2.51977
lowerneck -4.4156 -1.63861 1.09922
upperneck 7.15381 -2.32091 0.582912
head 3.04971 -1.10089 -0.0947977
rclavicle -1.18673e-014 0
rhumerus -29.5539 1.97836 -86.9472
rradius 54.8447
rwrist -15.1187
rhand -15.9414 -35.2574
rfingers 7.12502
rthumb 10.2567 -64.9873
lclavicle -1.18673e-014 0
lhumerus -76.5319 34.7834 26.9292
lradius 10.2055
lwrist -57.6288
lhand -6.67731 -15.5398
lfingers 7.12502
lthumb 19.1812 13.5343
rfemur -7.88863 -3.79152 12.6975
rtibia 54.3215
rfoot 14.1637 13.9307
rtoes -19.6345
lfemur -48.0706 0.944494 -27.746
ltibia 36.4921
lfoot -6.96528 -4.49681
ltoes -10.1347
36
root -1.09923 15.9518 -36.9447 15.9939 -1.28533 4.76019
lowerback -15.6264 0.348373 -8.24845
upperback -4.74043 1.8469 -2.4938
thorax 3.51416 0.908194 2.3551
lowerneck -4.37992 -1.62982 1.16006
upperneck 7.19184 -2.33596 0.874306
head 3.05919 -1.09587 -0.011727
rclavicle 1.21693e-014 -1.07344e-014
rhumerus -31.112 1.43286 -87.3921
rradius 54.6526
rwrist -15.2306
rhand -16.2689 -35.6116
rfingers 7.12502
rthumb 9.94074 -65.3569
lclavicle 1.21693e-014 -1.07344e-014
lhumerus -75.3178 34.2813 28.4987
lradius 10.4034
lwrist -55.3978
lhand -7.18431 -16.5977
lfingers 7.12502
lthumb 18.6935 12.5241
rfemur -9.33551 -3.98343 12.3418
rtibia 57.0683
rfoot 16.4919 12.9768
rtoes -17.069
lfemur -47.0788 1.16135 -28.3541
ltibia 36.8268
lfoot -7.94052 -4.73918
ltoes -12.8956
37
root -1.08248 15.9814 -36.729 15.709 -1.47966 4.94916
lowerback -15.9146 0.356229 -8.32942
upperback -4.33777 1.94046 -2.7129
thorax 4.09526 0.920938 2.19699
lowerneck -4.17449 -1.56681 1.22784
upperneck 6.54991 -2.26752 1.21091
head 2.80604 -1.05519 0.0928139
rclavicle 9.13245e-015 1.59028e-014
rhumerus -31.6876 0.918271 -87.8429
rradius 54.2669
rwrist -15.8747
rhand -16.5434 -37.2325
rfingers 7.12502
rthumb 9.67592 -66.9902
lclavicle 9.13245e-015 1.59028e-014
lhumerus -74.3767 35.1193 28.8823
lradius 10.4817
lwrist -54.402
lhand -7.65927 -16.3543
lfingers 7.12502
lthumb 18.2367 12.8108
rfemur -10.7672 -3.94835 12.1259
rtibia 59.6498
rfoot 18.1504 10.9719
rtoes -11.8435
lfemur -46.0352 1.63372 -28.8376
ltibia 37.0582
lfoot -9.07298 -4.81494
ltoes -15.7695
38
root -1.06827 16.0044 -36.5201 15.461 -1.68332 5.04108
lowerback -14.8664 0.443794 -8.45417
upperback -4.80298 1.92896 -2.8354
thorax 3.03501 0.966877 2.10469
lowerneck -4.21535 -1.68887 1.33422
upperneck 7.52269 -2.44681 1.08921
head 3.14199 -1.13558 0.0230811
rclavicle 9.11925e-015 3.18055e-014
rhumerus -33.4778 0.544712 -88.2317
rradius 53.7729
rwrist -16.7679
rhand -16.8352 -38.5608
rfingers 7.12502
rthumb 9.39435 -68.3314
lclavicle 9.11925e-015 3.18055e-014
lhumerus -73.7436 34.8863 29.4047
lradius 10.9132
lwrist -51.2829
lhand -5.51296 -15.9861
lfingers 7.12502
lthumb 20.3005 12.9729
rfemur -12.2466 -3.98327 12.0391
rtibia 62.0883
rfoot 18.5967 8.01705
rtoes -5.29772
lfemur -44.9752 2.15572 -29.2453
ltibia 37.2803
lfoot -10.1405 -4.58475
ltoes -16.4067
39
root -1.04908 16.0292 -36.3198 15.3518 -1.75792 5.03701
lowerback -15.1698 0.354786 -8.54104
upperback -4.42528 1.8822 -2.74336
thorax 3.59863 0.912788 2.25438
lowerneck -4.46012 -1.48798 1.06588
upperneck 7.13488 -2.1774 1.36866
head 3.06311 -1.00184 0.170024
rclavicle -1.74806e-014 1.59028e-014
rhumerus -33.7212 0.522468 -88.4736
rradius 52.874
rwrist -16.9917
rhand -17.1892 -38.4634
rfingers 7.12502
rthumb 9.0528 -68.2492
lclavicle -1.74806e-014 1.59028e-014
lhumerus -72.5934 35.8943 30.5722
lradius 11.1357
lwrist -49.4207
lhand -4.87532 -15.4314
lfingers 7.12502
lthumb 20.9132 13.4612
rfemur -13.8721 -4.20409 12.0903
rtibia 64.3702
rfoot 15.7662 8.51693
rtoes -13.3631
lfemur -44.0952 2.46065 -29.4847
ltibia 37.5263
lfoot -11.0787 -4.28303
ltoes -16.2774
40
root -1.02732 16.059 -36.126 15.3304 -1.80282 4.94459
lowerback -15.61 0.273195 -8.44184
upperback -4.01045 1.83562 -2.66907
thorax 4.2853 0.852997 2.28405
lowerneck -4.69044 -1.48465 1.02473
upperneck 6.84065 -2.164 1.30802
head 3.00596 -1.00036 0.157193
rclavicle 5.09696e-015 2.14687e-014
rhumerus -33.6859 0.290257 -88.6926
rradius 51.7041
rwrist -16.6732
rhand -17.2351 -37.7509
rfingers 7.12502
rthumb 9.00847 -67.5386
lclavicle 5.09696e-015 2.14687e-014
lhumerus -72.0731 37.4528 30.3941
lradius 11.0932
lwrist -49.72
lhand -5.92267 -16.0119
lfingers 7.12502
lthumb 19.9067 12.9885
rfemur -15.6225 -4.35914 12.3041
rtibia 66.4615
rfoot 13.189 7.60957
rtoes -16.9378
lfemur -43.3525 2.33791 -29.3024
ltibia 37.7515
lfoot -11.5934 -4.47816
ltoes -11.4765
41
root -1.00938 16.0825 -35.9356 15.3995 -1.79891 4.91342
lowerback -14.671 0.247738 -8.32831
upperback -4.52906 1.64448 -2.70399
thorax 3.24871 0.811588 2.12573
lowerneck -4.59136 -1.53842 1.02266
upperneck 7.25143 -2.23647 1.24301
head 3.12686 -1.03534 0.132871
rclavicle 1.57521e-014 -6.36111e-015
rhumerus -35.0207 -0.15191 -88.9384
rradius 50.6536
rwrist -16.1127
rhand -17.0121 -37.3105
rfingers 7.12502
rthumb 9.22365 -67.0888
lclavicle 1.57521e-014 -6.36111e-015
lhumerus -72.1312 37.8019 29.876
lradius 11.0681
lwrist -50.2473
lhand -7.06884 -15.2975
lfingers 7.12502
lthumb 18.8046 13.8136
rfemur -17.5597 -4.4894 12.5188
rtibia 68.4169
rfoot 11.1543 6.43646
rtoes -17.8892
lfemur -42.7099 1.9987 -29.1175
ltibia 37.9409
lfoot -12.1389 -4.3494
ltoes -8.1291
42
root -0.994007 16.1088 -35.7376 15.4955 -1.73466 4.94339
lowerback -13.8445 0.191738 -8.28513
upperback -5.0794 1.43563 -2.7486
thorax 2.24071 0.758404 2.00028
lowerneck -4.49566 -1.5311 0.987566
upperneck 7.80676 -2.23573 1.288
head 3.30084 -1.02941 0.152272
rclavicle 1.55114e-014 -1.66979e-014
rhumerus -36.4425 -0.690212 -89.1056
rradius 49.4067
rwrist -15.637
rhand -16.8446 -36.564
rfingers 7.12502
rthumb 9.38533 -66.3351
lclavicle 1.55114e-014 -1.66979e-014
lhumerus -71.1974 37.8004 30.8248
lradius 11.2279
lwrist -48.9876
lhand -8.66732 -15.1015
lfingers 7.12502
lthumb 17.2667 14.1515
rfemur -19.4525 -4.61378 12.6941
rtibia 70.1407
rfoot 9.19985 5.37822
rtoes -16.839
lfemur -42.0343 1.72418 -29.1213
ltibia 38.0638
lfoot -12.9121 -3.77807
ltoes -8.56608
43
root -0.97292 16.1349 -35.5497 15.6681 -2.44648 4.71411
lowerback -14.9163 0.333313 -8.0224
upperback -4.59327 1.73452 -2.73156
thorax 3.31652 0.854124 1.94546
lowerneck -4.53433 -1.38181 0.940838
upperneck 7.28822 -2.03938 1.48885
head 3.13259 -0.930544 0.235101
rclavicle 1.29078e-014 1.27222e-014
rhumerus -36.2462 -1.29 -89.1658
rradius 47.572
rwrist -15.6346
rhand -17.9944 -35.7873
rfingers 7.12502
rthumb 8.27578 -65.6052
lclavicle 1.29078e-014 1.27222e-014
lhumerus -69.8176 39.5672 31.3734
lradius 11.2169
lwrist -48.9266
lhand -9.23508 -15.3967
lfingers 7.12502
lthumb 16.7201 13.9033
rfemur -21.693 -3.96947 12.9045
rtibia 71.6657
rfoot 7.16682 4.70492
rtoes -15.5145
lfemur -41.4959 2.08071 -29.0332
ltibia 38.121
lfoot -13.5408 -3.11058
ltoes -9.10672
